<?xml version="1.0" encoding="UTF-8"?>
<svg width="600px" height="600px" viewBox="0 0 600 600" version="1.1" xmlns="http://www.w3.org/2000/svg" xmlns:xlink="http://www.w3.org/1999/xlink">
    <title>logo</title>
    <defs>
        <path d="M320,11.5470054 L539.807621,138.452995 C552.183664,145.598306 559.807621,158.803387 559.807621,173.094011 L559.807621,426.905989 C559.807621,441.196613 552.183664,454.401694 539.807621,461.547005 L320,588.452995 C307.623957,595.598306 292.376043,595.598306 280,588.452995 L60.1923789,461.547005 C47.8163358,454.401694 40.1923789,441.196613 40.1923789,426.905989 L40.1923789,173.094011 C40.1923789,158.803387 47.8163358,145.598306 60.1923789,138.452995 L280,11.5470054 C292.376043,4.40169359 307.623957,4.40169359 320,11.5470054 Z" id="path-1"></path>
    </defs>
    <g id="Page-1" stroke="none" stroke-width="1" fill="none" fill-rule="evenodd">
        <g id="logo">
            <g id="hex">
                <mask id="mask-2" fill="white">
                    <use xlink:href="#path-1"></use>
                </mask>
                <use id="Mask" fill="#640000" xlink:href="#path-1"></use>
                <path d="M320,11.5470054 L539.807621,138.452995 C552.183664,145.598306 559.807621,158.803387 559.807621,173.094011 L559.807621,426.905989 C559.807621,441.196613 552.183664,454.401694 539.807621,461.547005 L320,588.452995 C307.623957,595.598306 292.376043,595.598306 280,588.452995 L60.1923789,461.547005 C47.8163358,454.401694 40.1923789,441.196613 40.1923789,426.905989 L40.1923789,173.094011 C40.1923789,158.803387 47.8163358,145.598306 60.1923789,138.452995 L280,11.5470054 C292.376043,4.40169359 307.623957,4.40169359 320,11.5470054 Z M320,37.5470054 C307.623957,30.4016936 292.376043,30.4016936 280,37.5470054 L280,37.5470054 L82.7090394,151.452995 C70.3329963,158.598306 62.7090394,171.803387 62.7090394,186.094011 L62.7090394,186.094011 L62.7090394,413.905989 C62.7090394,428.196613 70.3329963,441.401694 82.7090394,448.547005 L82.7090394,448.547005 L280,562.452995 C292.376043,569.598306 307.623957,569.598306 320,562.452995 L320,562.452995 L517.290961,448.547005 C529.667004,441.401694 537.290961,428.196613 537.290961,413.905989 L537.290961,413.905989 L537.290961,186.094011 C537.290961,171.803387 529.667004,158.598306 517.290961,151.452995 L517.290961,151.452995 Z" id="Combined-Shape" fill="#AE1E1E"></path>
            </g>
            <g id="waveform" transform="translate(113.000000, 175.000000)" fill="#D8D8D8">
                <rect id="Rectangle" x="0" y="90" width="25" height="70" rx="12.5"></rect>
                <rect id="Rectangle" x="38.8888889" y="30" width="25" height="190" rx="12.5"></rect>
                <rect id="Rectangle" x="77.7777778" y="55" width="25" height="140" rx="12.5"></rect>
                <rect id="Rectangle" x="194.444444" y="72" width="25" height="106" rx="12.5"></rect>
                <rect id="Rectangle" x="233.333333" y="0" width="25" height="250" rx="12.5"></rect>
                <rect id="Rectangle" x="272.222222" y="30" width="25" height="190" rx="12.5"></rect>
                <rect id="Rectangle" x="311.111111" y="90" width="25" height="70" rx="12.5"></rect>
                <rect id="Rectangle" x="116.666667" y="107" width="25" height="36" rx="12.5"></rect>
                <rect id="Rectangle" x="155.555556" y="90" width="25" height="70" rx="12.5"></rect>
                <rect id="Rectangle" x="350" y="72" width="25" height="106" rx="12.5"></rect>
            </g>
        </g>
    </g>
</svg>